<svg height="181.57547611663676" width="200"
     style="width: 200px; height: 181.575px; position: absolute; top: 50%; left: 50%; transform: translate(-50%, -50%) scale(1); z-index: 0; cursor: pointer;">
    <defs id="SvgjsDefs1001"></defs>
    <g id="SvgjsG1007" featurekey="symbolFeature-0"
       transform="matrix(1.3333333333333333,0,0,1.3333333333333333,57.333333333333336,-2.6666666666666665)"
       fill="#ea5455">
        <title xmlns="http://www.w3.org/2000/svg">molecular-cell-hand-microscopic-cellular-atom-bond</title>
        <path xmlns="http://www.w3.org/2000/svg"
              d="M60.46,40.25a2.58,2.58,0,0,0-1.77-.17,1.29,1.29,0,0,1-.25,0,1,1,0,0,0-.78.38l-3,3.85L50.9,45A2.35,2.35,0,0,0,52,42.55,2.28,2.28,0,0,0,51,41a1.9,1.9,0,0,0-1.53-.24L37.8,44.23a1,1,0,0,0-.64.58l-2.63,6.34a.78.78,0,0,0-.05.14L32,60.75A1,1,0,0,0,33,62h0l8.1,0a1,1,0,0,0,1-.93l.32-4.74,15.91-6.24a1,1,0,0,0,.54-.5l3-6.46a.9.9,0,0,0,.1-.42A3.33,3.33,0,0,0,60.46,40.25Zm-3.24,8.08L41.09,54.66a1,1,0,0,0-.64.87L40.16,60l-5.87,0,2.11-8.14L38.82,46,50,42.72a.27.27,0,0,1,.07.17.54.54,0,0,1-.07.39l-.12,0-8.76,3.54a1,1,0,0,0,.55,1.91l13.73-2.52a1,1,0,0,0,.61-.36l3-3.83H59a2.91,2.91,0,0,1,.46,0,1.91,1.91,0,0,1,.45.56Z"></path>
        <path xmlns="http://www.w3.org/2000/svg"
              d="M21.74,61.06a1,1,0,0,0,1,.94h0L31,62a1,1,0,0,0,.8-.4,1,1,0,0,0,.16-.87L29.43,51.5a.56.56,0,0,0,0-.12l-2.57-6.31a1,1,0,0,0-.63-.57L14.5,40.9a1.83,1.83,0,0,0-1.51.23,2.26,2.26,0,0,0-1,1.5,2.36,2.36,0,0,0,1,2.46l-3.66-.72-3-3.85a1,1,0,0,0-.78-.38l-.24,0a2.6,2.6,0,0,0-1.77.14A3.29,3.29,0,0,0,2,42.62a1.11,1.11,0,0,0,.09.43l3,6.42a1,1,0,0,0,.53.51l15.85,6.4ZM4.07,42.55A1.53,1.53,0,0,1,4.5,42a2.15,2.15,0,0,1,.46.06H5l3,3.82a1,1,0,0,0,.59.37L22.31,49a1,1,0,0,0,.57-1.9l-8.72-3.63-.11,0A.46.46,0,0,1,14,43a.49.49,0,0,1,.07-.16l11.11,3.43,2.38,5.81L29.69,60l-6,0-.26-4.37a1,1,0,0,0-.62-.87L6.72,48.27Z"></path>
        <path xmlns="http://www.w3.org/2000/svg"
              d="M58,15a4,4,0,1,0-4-4,3.77,3.77,0,0,0,.09.83l-3.61,1a4.94,4.94,0,0,0-7.74-1.59L36.93,7.65A4.62,4.62,0,0,0,37,7,5,5,0,0,0,27,7a4.78,4.78,0,0,0,.07.65L21.22,11.2a4.92,4.92,0,0,0-7,.56l.06-.21L10,10.25A1.9,1.9,0,0,0,10,10a4,4,0,1,0-.64,2.15l3.94,1.19A5.09,5.09,0,0,0,13,15a5,5,0,0,0,4,4.9v4.2A5,5,0,0,0,13,29c0,.11,0,.21,0,.32L9.2,30.63A4,4,0,1,0,10,33a4.36,4.36,0,0,0-.05-.52l3.61-1.23A5,5,0,0,0,18,34a5.33,5.33,0,0,0,1.27-.18l7.81,4.43A4.65,4.65,0,0,0,27,39a5,5,0,0,0,10,0,4.65,4.65,0,0,0-.08-.75l7.81-4.43A5.33,5.33,0,0,0,46,34a5,5,0,0,0,4.47-2.8l3.59,1.17A4.21,4.21,0,0,0,54,33a4,4,0,1,0,4-4,4,4,0,0,0-3.12,1.53L51,29.26A2.3,2.3,0,0,0,51,29a5,5,0,0,0-4-4.9V19.9A5,5,0,0,0,51,15c0-.08,0-.15,0-.23L55,13.65A4,4,0,0,0,58,15ZM6,12a2,2,0,1,1,2-2A2,2,0,0,1,6,12ZM6,35a2,2,0,1,1,2-2A2,2,0,0,1,6,35Zm52-4a2,2,0,1,1-2,2A2,2,0,0,1,58,31ZM32,4a3,3,0,1,1-3,3A3,3,0,0,1,32,4ZM15,15a3,3,0,1,1,3,3A3,3,0,0,1,15,15Zm0,14a3,3,0,1,1,3,3A3,3,0,0,1,15,29ZM32,42a3,3,0,1,1,3-3A3,3,0,0,1,32,42Zm4.22-5.65a5,5,0,0,0-8.44,0l-6.44-3.66A5,5,0,0,0,23,29a5,5,0,0,0-4-4.9V19.9a5,5,0,0,0,3.46-7.11l5.28-3.21a5,5,0,0,0,8.52,0l5.25,3.25A4.91,4.91,0,0,0,41,15a5,5,0,0,0,4,4.9v4.2A5,5,0,0,0,41,29a5,5,0,0,0,1.66,3.69ZM49,29a3,3,0,1,1-3-3A3,3,0,0,1,49,29ZM46,18a3,3,0,1,1,3-3A3,3,0,0,1,46,18ZM58,9a2,2,0,1,1-2,2A2,2,0,0,1,58,9Z"></path>
    </g>
    <g id="SvgjsG1008" featurekey="nameFeature-0"
       transform="matrix(1.7429113941808498,0,0,1.7429113941808498,-1.0218679384792384,80.15411605442635)"
       fill="#ea5455">
        <path d="M22.539 40 l-2.0508 -5.8203 l-11.855 0 l-2.0508 5.8203 l-5.9961 0 l10.391 -28.223 l7.168 0 l10.391 28.223 l-5.9961 0 z M10.352 29.277 l8.418 0 l-4.1992 -11.973 z M48.179179687499996 11.777000000000001 l0 5.1563 l-6.6992 0 l0 23.066 l-5.8008 0 l0 -23.066 l-6.7383 0 l0 -5.1563 l19.238 0 z M64.150046875 40.39063 c-8.3008 0 -14.434 -5.6641 -14.434 -14.512 c0 -8.8672 6.1328 -14.492 14.434 -14.492 c8.2813 0 14.414 5.625 14.414 14.492 c0 8.8477 -6.1328 14.512 -14.414 14.512 z M64.150046875 35.0195 c4.8633 0 8.5938 -3.418 8.5938 -9.1406 c0 -5.7031 -3.7305 -9.1016 -8.5938 -9.1016 s-8.5938 3.3984 -8.5938 9.1016 c0 5.7227 3.7305 9.1406 8.5938 9.1406 z M115.33682031250001 40 l-5.8398 0 l-1.8555 -21.27 l-7.1484 21.27 l-3.7891 0 l-7.1484 -21.27 l-1.875 21.27 l-5.8594 0 l2.3633 -28.223 l8.3594 0 l6.0156 17.715 l6.0938 -17.715 l8.3594 0 z"></path>
    </g>
    <g id="SvgjsG1009" featurekey="sloganFeature-0"
       transform="matrix(0.44990355556371725,0,0,0.44990355556371725,19.86795333046949,170.24006778484662)"
       fill="#ea5455">
        <path d="M11.27 20 l-1.0254 -2.9102 l-5.9277 0 l-1.0254 2.9102 l-2.998 0 l5.1953 -14.111 l3.584 0 l5.1953 14.111 l-2.998 0 z M5.1758 14.6387 l4.209 0 l-2.0996 -5.9863 z M25.04153203125 17.5 c1.8164 0 3.3105 -0.95703 3.9355 -2.5977 l2.7344 0.99609 c-0.9375 2.5098 -3.2129 4.0918 -6.084 4.2773 l-0.57617 1.0254 c0.14648 -0.029297 0.30273 -0.058594 0.43945 -0.058594 c1.1035 0 1.9141 0.77148 1.9141 1.875 c0 1.2207 -0.95703 2.1777 -2.1777 2.1777 c-1.1426 0 -2.0215 -0.6543 -2.334 -1.4746 l1.2402 -0.42969 c0.19531 0.39063 0.63477 0.625 1.0352 0.625 c0.48828 0 0.91797 -0.35156 0.91797 -0.89844 c0 -0.58594 -0.42969 -0.88867 -0.9375 -0.88867 c-0.27344 0 -0.53711 0.097656 -0.72266 0.30273 l-1.0254 -0.60547 l0.9082 -1.6602 c-3.7695 -0.3125 -6.4844 -3.0566 -6.4844 -7.2266 c0 -4.4336 3.0664 -7.2461 7.2168 -7.2461 c3.1445 0 5.6641 1.6113 6.6699 4.2871 l-2.7344 0.99609 c-0.625 -1.6406 -2.1191 -2.5879 -3.9355 -2.5879 c-2.4316 0 -4.2969 1.6992 -4.2969 4.5508 s1.8652 4.5605 4.2969 4.5605 z M36.5185828125 20 l0 -14.111 l2.9297 0 l0 14.111 l-2.9297 0 z M53.84543359375 20 l-4.3848 -5.9961 l-1.0352 0 l0 5.9961 l-2.9297 0 l0 -14.111 l2.9297 0 l0 5.5469 l0.99609 0 l4.4238 -5.5469 l3.5742 0 l-5.4688 6.748 l5.6348 7.3633 l-3.7402 0 z M77.87376953125 5.888999999999999 l0 2.5781 l-3.3496 0 l0 11.533 l-2.9004 0 l0 -11.533 l-3.3691 0 l0 -2.5781 l9.6191 0 z M88.7451453125 20.19531 c-4.1504 0 -7.2168 -2.832 -7.2168 -7.2559 c0 -4.4336 3.0664 -7.2461 7.2168 -7.2461 c4.1406 0 7.207 2.8125 7.207 7.2461 c0 4.4238 -3.0664 7.2559 -7.207 7.2559 z M88.7451453125 17.5098 c2.4316 0 4.2969 -1.709 4.2969 -4.5703 c0 -2.8516 -1.8652 -4.5508 -4.2969 -4.5508 s-4.2969 1.6992 -4.2969 4.5508 c0 2.8613 1.8652 4.5703 4.2969 4.5703 z M106.92137421875 5.888999999999999 c2.7637 0 4.4824 2.0508 4.4824 4.5605 c0 2.5684 -1.7188 4.4922 -4.4824 4.4922 l-2.9395 0 l0 5.0586 l-2.9297 0 l0 -14.111 l5.8691 0 z M106.43307421875 12.4902 c1.4648 0 2.1484 -0.81055 2.1484 -2.0801 c0 -1.2207 -0.68359 -2.0703 -2.1484 -2.0703 l-2.4512 0 l0 4.1504 l2.4512 0 z M119.199259375 17.4121 l4.4238 0 l0 2.5879 l-7.3535 0 l0 -14.111 l2.9297 0 l0 11.523 z M133.48878828125 20.19531 c-3.0957 0 -5.5176 -1.582 -5.5176 -5.1367 l0 -9.1699 l2.9297 0 l0 8.7695 c0 2.1484 1.1426 2.9492 2.5879 2.9492 c1.4551 0 2.6074 -0.81055 2.6074 -2.9492 l0 -8.7695 l2.9297 0 l0 9.1699 c0 3.5547 -2.4316 5.1367 -5.5371 5.1367 z M147.7197671875 17.4121 l4.4238 0 l0 2.5879 l-7.3535 0 l0 -14.111 l2.9297 0 l0 11.523 z M162.00929609375 20.19531 c-3.0957 0 -5.5176 -1.582 -5.5176 -5.1367 l0 -9.1699 l2.9297 0 l0 8.7695 c0 2.1484 1.1426 2.9492 2.5879 2.9492 c1.4551 0 2.6074 -0.81055 2.6074 -2.9492 l0 -8.7695 l2.9297 0 l0 9.1699 c0 3.5547 -2.4316 5.1367 -5.5371 5.1367 z M181.660375 20 l-4.3848 -5.9961 l-1.0352 0 l0 5.9961 l-2.9297 0 l0 -14.111 l2.9297 0 l0 5.5469 l0.99609 0 l4.4238 -5.5469 l3.5742 0 l-5.4688 6.748 l5.6348 7.3633 l-3.7402 0 z M213.6767109375 20 l-2.9199 0 l-0.92773 -10.635 l-3.5742 10.635 l-1.8945 0 l-3.5742 -10.635 l-0.9375 10.635 l-2.9297 0 l1.1816 -14.111 l4.1797 0 l3.0078 8.8574 l3.0469 -8.8574 l4.1797 0 z M227.33177734375 8.467 l-5.2344 0 l0 3.2031 l4.6387 0 l0 2.5488 l-4.6387 0 l0 3.1934 l5.2344 0 l0 2.5879 l-8.1836 0 l0 -14.111 l8.1836 0 l0 2.5781 z M242.392734375 5.888999999999999 l2.9199 0 l0 14.111 l-3.3887 0 l-6.25 -10.088 l0 10.088 l-2.9199 0 l0 -14.111 l3.3496 0 l6.2891 10.029 l0 -10.029 z M259.55345703125 5.888999999999999 l0 2.5781 l-3.3496 0 l0 11.533 l-2.9004 0 l0 -11.533 l-3.3691 0 l0 -2.5781 l9.6191 0 z M270.4248328125 20.19531 c-4.1504 0 -7.2168 -2.832 -7.2168 -7.2559 c0 -4.4336 3.0664 -7.2461 7.2168 -7.2461 c4.1406 0 7.207 2.8125 7.207 7.2461 c0 4.4238 -3.0664 7.2559 -7.207 7.2559 z M270.4248328125 17.5098 c2.4316 0 4.2969 -1.709 4.2969 -4.5703 c0 -2.8516 -1.8652 -4.5508 -4.2969 -4.5508 s-4.2969 1.6992 -4.2969 4.5508 c0 2.8613 1.8652 4.5703 4.2969 4.5703 z M290.18306171875 20 l-3.6719 -6.2109 l-0.84961 0 l0 6.2109 l-2.9297 0 l0 -14.111 l5.1172 0 c3.1934 0 4.541 1.8848 4.541 4.2188 c0 1.8945 -1.0742 3.125 -2.9883 3.5352 l4.248 6.3574 l-3.4668 0 z M285.66166171875 8.32 l0 3.3691 l1.7285 0 c1.5625 0 2.1973 -0.66406 2.1973 -1.6797 c0 -1.0059 -0.63477 -1.6895 -2.1973 -1.6895 l-1.7285 0 z M301.132853125 17.4121 l4.4238 0 l0 2.5879 l-7.3535 0 l0 -14.111 l2.9297 0 l0 11.523 z M315.42238203125 20.19531 c-3.0957 0 -5.5176 -1.582 -5.5176 -5.1367 l0 -9.1699 l2.9297 0 l0 8.7695 c0 2.1484 1.1426 2.9492 2.5879 2.9492 c1.4551 0 2.6074 -0.81055 2.6074 -2.9492 l0 -8.7695 l2.9297 0 l0 9.1699 c0 3.5547 -2.4316 5.1367 -5.5371 5.1367 z M332.9052609375 4.57 c-2.0996 0 -3.5547 -0.75195 -3.5547 -2.8809 l1.6211 0 c0 1.0938 0.76172 1.5723 1.9336 1.5723 c1.1914 0 1.9531 -0.47852 1.9531 -1.5723 l1.6211 0 c0 2.1289 -1.4648 2.8809 -3.5742 2.8809 z M332.8271609375 20.19531 c-4.0723 0 -7.0703 -2.8125 -7.0703 -7.2168 c0 -4.4629 3.0664 -7.2852 7.2168 -7.2852 c2.7246 0 4.9805 1.2012 6.2109 3.3203 l-2.5684 1.3672 c-0.74219 -1.4453 -2.0703 -2.1387 -3.6426 -2.1387 c-2.4414 0 -4.2773 1.6797 -4.2773 4.668 c0 2.8809 1.7188 4.7363 4.3848 4.7363 c1.8066 0 3.4668 -0.89844 3.8672 -2.959 l-3.8574 0 l0 -2.3535 l6.6309 0 l0 7.666 l-2.3047 0 l0 -1.9531 c-0.9082 1.3379 -2.4316 2.1484 -4.5898 2.1484 z M350.38820234375 20.19531 c-3.0957 0 -5.5176 -1.582 -5.5176 -5.1367 l0 -9.1699 l2.9297 0 l0 8.7695 c0 2.1484 1.1426 2.9492 2.5879 2.9492 c1.4551 0 2.6074 -0.81055 2.6074 -2.9492 l0 -8.7695 l2.9297 0 l0 9.1699 c0 3.5547 -2.4316 5.1367 -5.5371 5.1367 z"></path>
    </g>
</svg>
