<?xml version="1.0" encoding="UTF-8" standalone="no"?>
<svg
   height="91.574997"
   width="291.57501"
   version="1.1"
   id="svg5"
   sodipodi:docname="atom-logo-horizontal.svg"
   inkscape:version="1.3.2 (091e20e, 2023-11-25)"
   inkscape:export-filename="atom-logo-horizontal.png"
   inkscape:export-xdpi="263.39706"
   inkscape:export-ydpi="263.39706"
   xmlns:inkscape="http://www.inkscape.org/namespaces/inkscape"
   xmlns:sodipodi="http://sodipodi.sourceforge.net/DTD/sodipodi-0.dtd"
   xmlns="http://www.w3.org/2000/svg"
   xmlns:svg="http://www.w3.org/2000/svg">
  <sodipodi:namedview
     id="namedview5"
     pagecolor="#ffffff"
     bordercolor="#000000"
     borderopacity="0.25"
     inkscape:showpageshadow="2"
     inkscape:pageopacity="0.0"
     inkscape:pagecheckerboard="0"
     inkscape:deskcolor="#d1d1d1"
     inkscape:zoom="2.895"
     inkscape:cx="120.37997"
     inkscape:cy="90.673575"
     inkscape:window-width="2560"
     inkscape:window-height="1308"
     inkscape:window-x="1728"
     inkscape:window-y="25"
     inkscape:window-maximized="0"
     inkscape:current-layer="svg5" />
  <defs
     id="SvgjsDefs1001" />
  <g
     id="SvgjsG1007"
     featurekey="symbolFeature-0"
     transform="matrix(1.1929,0,0,1.1929066,2.6142,7.6141837)"
     fill="#ea5455">
    <title
       id="title1">molecular-cell-hand-microscopic-cellular-atom-bond</title>
    <path
       d="m 60.46,40.25 a 2.58,2.58 0 0 0 -1.77,-0.17 1.29,1.29 0 0 1 -0.25,0 1,1 0 0 0 -0.78,0.38 l -3,3.85 L 50.9,45 A 2.35,2.35 0 0 0 52,42.55 2.28,2.28 0 0 0 51,41 1.9,1.9 0 0 0 49.47,40.76 L 37.8,44.23 a 1,1 0 0 0 -0.64,0.58 l -2.63,6.34 a 0.78,0.78 0 0 0 -0.05,0.14 L 32,60.75 A 1,1 0 0 0 33,62 v 0 h 8.1 a 1,1 0 0 0 1,-0.93 l 0.32,-4.74 15.91,-6.24 a 1,1 0 0 0 0.54,-0.5 l 3,-6.46 a 0.9,0.9 0 0 0 0.1,-0.42 3.33,3.33 0 0 0 -1.51,-2.46 z m -3.24,8.08 -16.13,6.33 a 1,1 0 0 0 -0.64,0.87 L 40.16,60 H 34.29 L 36.4,51.86 38.82,46 50,42.72 a 0.27,0.27 0 0 1 0.07,0.17 0.54,0.54 0 0 1 -0.07,0.39 h -0.12 l -8.76,3.54 a 1,1 0 0 0 0.55,1.91 L 55.4,46.21 a 1,1 0 0 0 0.61,-0.36 l 3,-3.83 H 59 a 2.91,2.91 0 0 1 0.46,0 1.91,1.91 0 0 1 0.45,0.56 z"
       id="path1" />
    <path
       d="m 21.74,61.06 a 1,1 0 0 0 1,0.94 v 0 H 31 a 1,1 0 0 0 0.8,-0.4 1,1 0 0 0 0.16,-0.87 L 29.43,51.5 a 0.56,0.56 0 0 0 0,-0.12 L 26.86,45.07 A 1,1 0 0 0 26.23,44.5 L 14.5,40.9 a 1.83,1.83 0 0 0 -1.51,0.23 2.26,2.26 0 0 0 -1,1.5 2.36,2.36 0 0 0 1,2.46 l -3.66,-0.72 -3,-3.85 A 1,1 0 0 0 5.55,40.14 H 5.31 A 2.6,2.6 0 0 0 3.54,40.28 3.29,3.29 0 0 0 2,42.62 1.11,1.11 0 0 0 2.09,43.05 l 3,6.42 a 1,1 0 0 0 0.53,0.51 l 15.85,6.4 z M 4.07,42.55 A 1.53,1.53 0 0 1 4.5,42 2.15,2.15 0 0 1 4.96,42.06 H 5 l 3,3.82 a 1,1 0 0 0 0.59,0.37 L 22.31,49 a 1,1 0 0 0 0.57,-1.9 L 14.16,43.47 H 14.05 A 0.46,0.46 0 0 1 14,43 0.49,0.49 0 0 1 14.07,42.84 l 11.11,3.43 2.38,5.81 2.13,7.92 h -6 L 23.43,55.63 A 1,1 0 0 0 22.81,54.76 L 6.72,48.27 Z"
       id="path2" />
    <path
       d="m 58,15 a 4,4 0 1 0 -4,-4 3.77,3.77 0 0 0 0.09,0.83 l -3.61,1 A 4.94,4.94 0 0 0 42.74,11.24 L 36.93,7.65 A 4.62,4.62 0 0 0 37,7 5,5 0 0 0 27,7 4.78,4.78 0 0 0 27.07,7.65 l -5.85,3.55 a 4.92,4.92 0 0 0 -7,0.56 L 14.28,11.55 10,10.25 A 1.9,1.9 0 0 0 10,10 4,4 0 1 0 9.36,12.15 l 3.94,1.19 A 5.09,5.09 0 0 0 13,15 a 5,5 0 0 0 4,4.9 v 4.2 A 5,5 0 0 0 13,29 c 0,0.11 0,0.21 0,0.32 L 9.2,30.63 A 4,4 0 1 0 10,33 4.36,4.36 0 0 0 9.95,32.48 l 3.61,-1.23 A 5,5 0 0 0 18,34 5.33,5.33 0 0 0 19.27,33.82 l 7.81,4.43 A 4.65,4.65 0 0 0 27,39 5,5 0 0 0 37,39 4.65,4.65 0 0 0 36.92,38.25 l 7.81,-4.43 A 5.33,5.33 0 0 0 46,34 5,5 0 0 0 50.47,31.2 l 3.59,1.17 A 4.21,4.21 0 0 0 54,33 4,4 0 1 0 58,29 4,4 0 0 0 54.88,30.53 L 51,29.26 A 2.3,2.3 0 0 0 51,29 5,5 0 0 0 47,24.1 V 19.9 A 5,5 0 0 0 51,15 c 0,-0.08 0,-0.15 0,-0.23 l 4,-1.12 A 4,4 0 0 0 58,15 Z M 6,12 a 2,2 0 1 1 2,-2 2,2 0 0 1 -2,2 z m 0,23 a 2,2 0 1 1 2,-2 2,2 0 0 1 -2,2 z m 52,-4 a 2,2 0 1 1 -2,2 2,2 0 0 1 2,-2 z M 32,4 A 3,3 0 1 1 29,7 3,3 0 0 1 32,4 Z M 15,15 a 3,3 0 1 1 3,3 3,3 0 0 1 -3,-3 z m 0,14 a 3,3 0 1 1 3,3 3,3 0 0 1 -3,-3 z m 17,13 a 3,3 0 1 1 3,-3 3,3 0 0 1 -3,3 z m 4.22,-5.65 a 5,5 0 0 0 -8.44,0 L 21.34,32.69 A 5,5 0 0 0 23,29 5,5 0 0 0 19,24.1 v -4.2 a 5,5 0 0 0 3.46,-7.11 l 5.28,-3.21 a 5,5 0 0 0 8.52,0 l 5.25,3.25 A 4.91,4.91 0 0 0 41,15 a 5,5 0 0 0 4,4.9 v 4.2 a 5,5 0 0 0 -4,4.9 5,5 0 0 0 1.66,3.69 z M 49,29 a 3,3 0 1 1 -3,-3 3,3 0 0 1 3,3 z M 46,18 a 3,3 0 1 1 3,-3 3,3 0 0 1 -3,3 z M 58,9 a 2,2 0 1 1 -2,2 2,2 0 0 1 2,-2 z"
       id="path3" />
  </g>
  <g
     id="g5"
     transform="translate(86.574999,-95.000003)">
    <g
       id="SvgjsG1008"
       featurekey="nameFeature-0"
       transform="matrix(1.7429114,0,0,1.7429114,-1.0218679,80.154116)"
       fill="#ea5455">
      <path
         d="M 22.539,40 20.4882,34.1797 H 8.6332 L 6.5824,40 H 0.5863 l 10.391,-28.223 h 7.168 L 28.5363,40 H 22.5402 Z M 10.352,29.277 H 18.77 L 14.5708,17.304 Z m 37.82718,-17.5 v 5.1563 h -6.6992 v 23.066 h -5.8008 v -23.066 h -6.7383 V 11.777 h 19.238 z m 15.970867,28.61363 c -8.3008,0 -14.434,-5.6641 -14.434,-14.512 0,-8.8672 6.1328,-14.492 14.434,-14.492 8.2813,0 14.414,5.625 14.414,14.492 0,8.8477 -6.1328,14.512 -14.414,14.512 z m 0,-5.37113 c 4.8633,0 8.5938,-3.418 8.5938,-9.1406 0,-5.7031 -3.7305,-9.1016 -8.5938,-9.1016 -4.8633,0 -8.5938,3.3984 -8.5938,9.1016 0,5.7227 3.7305,9.1406 8.5938,9.1406 z M 115.33682,40 h -5.8398 l -1.8555,-21.27 -7.1484,21.27 h -3.7891 L 89.55562,18.73 87.68062,40 h -5.8594 l 2.3633,-28.223 h 8.3594 l 6.0156,17.715 6.0938,-17.715 h 8.3594 z"
         id="path4" />
    </g>
    <g
       id="SvgjsG1009"
       featurekey="sloganFeature-0"
       transform="matrix(0.44990356,0,0,0.44990356,19.867953,170.24007)"
       fill="#ea5455">
      <path
         d="M 11.27,20 10.2446,17.0898 H 4.3169 L 3.2915,20 H 0.2935 L 5.4888,5.889 h 3.584 L 14.2681,20 h -2.998 z M 5.1758,14.6387 h 4.209 L 7.2852,8.6524 Z M 25.041532,17.5 c 1.8164,0 3.3105,-0.95703 3.9355,-2.5977 l 2.7344,0.99609 c -0.9375,2.5098 -3.2129,4.0918 -6.084,4.2773 l -0.57617,1.0254 c 0.14648,-0.0293 0.30273,-0.05859 0.43945,-0.05859 1.1035,0 1.9141,0.77148 1.9141,1.875 0,1.2207 -0.95703,2.1777 -2.1777,2.1777 -1.1426,0 -2.0215,-0.6543 -2.334,-1.4746 l 1.2402,-0.42969 c 0.19531,0.39063 0.63477,0.625 1.0352,0.625 0.48828,0 0.91797,-0.35156 0.91797,-0.89844 0,-0.58594 -0.42969,-0.88867 -0.9375,-0.88867 -0.27344,0 -0.53711,0.09766 -0.72266,0.30273 l -1.0254,-0.60547 0.9082,-1.6602 c -3.7695,-0.3125 -6.4844,-3.0566 -6.4844,-7.2266 0,-4.4336 3.0664,-7.2461 7.2168,-7.2461 3.1445,0 5.6641,1.6113 6.6699,4.2871 l -2.7344,0.99609 c -0.625,-1.6406 -2.1191,-2.5879 -3.9355,-2.5879 -2.4316,0 -4.2969,1.6992 -4.2969,4.5508 0,2.8516 1.8652,4.5605 4.2969,4.5605 z M 36.518583,20 V 5.889 h 2.9297 V 20 Z m 17.326851,0 -4.3848,-5.9961 h -1.0352 V 20 h -2.9297 V 5.889 h 2.9297 v 5.5469 h 0.99609 l 4.4238,-5.5469 h 3.5742 l -5.4688,6.748 5.6348,7.3633 h -3.7402 z M 77.87377,5.889 v 2.5781 h -3.3496 v 11.533 h -2.9004 V 8.4671 h -3.3691 V 5.889 Z m 10.871375,14.30631 c -4.1504,0 -7.2168,-2.832 -7.2168,-7.2559 0,-4.4336 3.0664,-7.2461 7.2168,-7.2461 4.1406,0 7.207,2.8125 7.207,7.2461 0,4.4238 -3.0664,7.2559 -7.207,7.2559 z m 0,-2.68551 c 2.4316,0 4.2969,-1.709 4.2969,-4.5703 0,-2.8516 -1.8652,-4.5508 -4.2969,-4.5508 -2.4317,0 -4.2969,1.6992 -4.2969,4.5508 0,2.8613 1.8652,4.5703 4.2969,4.5703 z M 106.92137,5.889 c 2.7637,0 4.4824,2.0508 4.4824,4.5605 0,2.5684 -1.7188,4.4922 -4.4824,4.4922 h -2.9395 v 5.0586 h -2.9297 V 5.8893 h 5.8691 z m -0.4883,6.6012 c 1.4648,0 2.1484,-0.81055 2.1484,-2.0801 0,-1.2207 -0.68359,-2.0703 -2.1484,-2.0703 h -2.4512 v 4.1504 z m 12.76619,4.9219 h 4.4238 V 20 h -7.3535 V 5.889 h 2.9297 v 11.523 z m 14.28953,2.78321 c -3.0957,0 -5.5176,-1.582 -5.5176,-5.1367 v -9.1699 h 2.9297 v 8.7695 c 0,2.1484 1.1426,2.9492 2.5879,2.9492 1.4551,0 2.6074,-0.81055 2.6074,-2.9492 v -8.7695 h 2.9297 v 9.1699 c 0,3.5547 -2.4316,5.1367 -5.5371,5.1367 z m 14.23098,-2.78321 h 4.4238 V 20 h -7.3535 V 5.889 h 2.9297 v 11.523 z m 14.28953,2.78321 c -3.0957,0 -5.5176,-1.582 -5.5176,-5.1367 v -9.1699 h 2.9297 v 8.7695 c 0,2.1484 1.1426,2.9492 2.5879,2.9492 1.4551,0 2.6074,-0.81055 2.6074,-2.9492 v -8.7695 h 2.9297 v 9.1699 c 0,3.5547 -2.4316,5.1367 -5.5371,5.1367 z M 181.66037,20 l -4.3848,-5.9961 h -1.0352 V 20 h -2.9297 V 5.889 h 2.9297 v 5.5469 h 0.99609 l 4.4238,-5.5469 h 3.5742 l -5.4688,6.748 5.6348,7.3633 h -3.7402 z m 32.01634,0 h -2.9199 L 209.82908,9.365 206.25488,20 h -1.8945 L 200.78618,9.365 199.84868,20 h -2.9297 l 1.1816,-14.111 h 4.1797 l 3.0078,8.8574 3.0469,-8.8574 h 4.1797 z M 227.33178,8.467 h -5.2344 v 3.2031 h 4.6387 v 2.5488 h -4.6387 v 3.1934 h 5.2344 v 2.5879 h -8.1836 V 5.8892 h 8.1836 v 2.5781 z m 15.06095,-2.578 h 2.9199 V 20 h -3.3887 l -6.25,-10.088 V 20 h -2.9199 V 5.889 h 3.3496 l 6.2891,10.029 z m 17.16073,0 v 2.5781 h -3.3496 v 11.533 h -2.9004 V 8.4671 h -3.3691 V 5.889 Z m 10.87137,14.30631 c -4.1504,0 -7.2168,-2.832 -7.2168,-7.2559 0,-4.4336 3.0664,-7.2461 7.2168,-7.2461 4.1406,0 7.207,2.8125 7.207,7.2461 0,4.4238 -3.0664,7.2559 -7.207,7.2559 z m 0,-2.68551 c 2.4316,0 4.2969,-1.709 4.2969,-4.5703 0,-2.8516 -1.8652,-4.5508 -4.2969,-4.5508 -2.4317,0 -4.2969,1.6992 -4.2969,4.5508 0,2.8613 1.8652,4.5703 4.2969,4.5703 z M 290.18306,20 l -3.6719,-6.2109 h -0.84961 V 20 h -2.9297 V 5.889 h 5.1172 c 3.1934,0 4.541,1.8848 4.541,4.2188 0,1.8945 -1.0742,3.125 -2.9883,3.5352 l 4.248,6.3574 h -3.4668 z m -4.5214,-11.68 v 3.3691 h 1.7285 c 1.5625,0 2.1973,-0.66406 2.1973,-1.6797 0,-1.0059 -0.63477,-1.6895 -2.1973,-1.6895 h -1.7285 z m 15.47119,9.0921 h 4.4238 V 20 h -7.3535 V 5.889 h 2.9297 v 11.523 z m 14.28953,2.78321 c -3.0957,0 -5.5176,-1.582 -5.5176,-5.1367 v -9.1699 h 2.9297 v 8.7695 c 0,2.1484 1.1426,2.9492 2.5879,2.9492 1.4551,0 2.6074,-0.81055 2.6074,-2.9492 v -8.7695 h 2.9297 v 9.1699 c 0,3.5547 -2.4316,5.1367 -5.5371,5.1367 z M 332.90526,4.57 c -2.0996,0 -3.5547,-0.75195 -3.5547,-2.8809 h 1.6211 c 0,1.0938 0.76172,1.5723 1.9336,1.5723 1.1914,0 1.9531,-0.47852 1.9531,-1.5723 h 1.6211 c 0,2.1289 -1.4648,2.8809 -3.5742,2.8809 z m -0.0781,15.62531 c -4.0723,0 -7.0703,-2.8125 -7.0703,-7.2168 0,-4.4629 3.0664,-7.2852 7.2168,-7.2852 2.7246,0 4.9805,1.2012 6.2109,3.3203 l -2.5684,1.3672 c -0.74219,-1.4453 -2.0703,-2.1387 -3.6426,-2.1387 -2.4414,0 -4.2773,1.6797 -4.2773,4.668 0,2.8809 1.7188,4.7363 4.3848,4.7363 1.8066,0 3.4668,-0.89844 3.8672,-2.959 h -3.8574 v -2.3535 h 6.6309 v 7.666 h -2.3047 v -1.9531 c -0.9082,1.3379 -2.4316,2.1484 -4.5898,2.1484 z m 17.56104,0 c -3.0957,0 -5.5176,-1.582 -5.5176,-5.1367 v -9.1699 h 2.9297 v 8.7695 c 0,2.1484 1.1426,2.9492 2.5879,2.9492 1.4551,0 2.6074,-0.81055 2.6074,-2.9492 v -8.7695 h 2.9297 v 9.1699 c 0,3.5547 -2.4316,5.1367 -5.5371,5.1367 z"
         id="path5" />
    </g>
  </g>
</svg>
